ffmpeg version 3.4.8-0ubuntu0.2 Copyright (c) 2000-2020 the FFmpeg developers
  built with gcc 7 (Ubuntu 7.5.0-3ubuntu1~18.04)
  configuration: --prefix=/usr --extra-version=0ubuntu0.2 --toolchain=hardened --libdir=/usr/lib/x86_64-linux-gnu --incdir=/usr/include/x86_64-linux-gnu --enable-gpl --disable-stripping --enable-avresample --enable-avisynth --enable-gnutls --enable-ladspa --enable-libass --enable-libbluray --enable-libbs2b --enable-libcaca --enable-libcdio --enable-libflite --enable-libfontconfig --enable-libfreetype --enable-libfribidi --enable-libgme --enable-libgsm --enable-libmp3lame --enable-libmysofa --enable-libopenjpeg --enable-libopenmpt --enable-libopus --enable-libpulse --enable-librubberband --enable-librsvg --enable-libshine --enable-libsnappy --enable-libsoxr --enable-libspeex --enable-libssh --enable-libtheora --enable-libtwolame --enable-libvorbis --enable-libvpx --enable-libwavpack --enable-libwebp --enable-libx265 --enable-libxml2 --enable-libxvid --enable-libzmq --enable-libzvbi --enable-omx --enable-openal --enable-opengl --enable-sdl2 --enable-libdc1394 --enable-libdrm --enable-libiec61883 --enable-chromaprint --enable-frei0r --enable-libopencv --enable-libx264 --enable-shared
  libavutil      55. 78.100 / 55. 78.100
  libavcodec     57.107.100 / 57.107.100
  libavformat    57. 83.100 / 57. 83.100
  libavdevice    57. 10.100 / 57. 10.100
  libavfilter     6.107.100 /  6.107.100
  libavresample   3.  7.  0 /  3.  7.  0
  libswscale      4.  8.100 /  4.  8.100
  libswresample   2.  9.100 /  2.  9.100
  libpostproc    54.  7.100 / 54.  7.100
[asf @ 0x55dfc3f52900] Estimating duration from bitrate, this may be inaccurate
Input #0, asf, from '../.././Samples/wmapro-in-wmavoice.wmv':
  Metadata:
    WMFSDKNeeded    : 0.0.0.0000
    DeviceConformanceTemplate: MP@HL
    WMFSDKVersion   : 10.00.00.4054
    IsVBR           : 1
    VBR Peak        : 283651
    Buffer Average  : 67846
  Duration: 00:03:55.47, start: 0.000000, bitrate: 178 kb/s
    Stream #0:0(eng): Audio: wmavoice ([10][0][0][0] / 0x000A), 22050 Hz, mono, flt, 20 kb/s
    Stream #0:1(eng): Video: wmv3 (Main) (WMV3 / 0x33564D57), yuv420p, 1024x768, 157 kb/s, SAR 1:1 DAR 4:3, 4 tbr, 1k tbn, 1k tbc
Stream mapping:
  Stream #0:1 -> #0:0 (wmv3 (native) -> h264 (libx264))
  Stream #0:0 -> #0:1 (wmavoice (native) -> aac (native))
Press [q] to stop, [?] for help
[libx264 @ 0x55dfc3f788a0] using SAR=1/1
[libx264 @ 0x55dfc3f788a0] using cpu capabilities: MMX2 SSE2Fast SSSE3 SSE4.2 AVX FMA3 BMI2 AVX2
[libx264 @ 0x55dfc3f788a0] profile High, level 3.1
[libx264 @ 0x55dfc3f788a0] 264 - core 152 r2854 e9a5903 - H.264/MPEG-4 AVC codec - Copyleft 2003-2017 - http://www.videolan.org/x264.html - options: cabac=1 ref=3 deblock=1:0:0 analyse=0x3:0x113 me=hex subme=7 psy=1 psy_rd=1.00:0.00 mixed_ref=1 me_range=16 chroma_me=1 trellis=1 8x8dct=1 cqm=0 deadzone=21,11 fast_pskip=1 chroma_qp_offset=-2 threads=6 lookahead_threads=1 sliced_threads=0 nr=0 decimate=1 interlaced=0 bluray_compat=0 constrained_intra=0 bframes=3 b_pyramid=2 b_adapt=1 b_bias=0 direct=1 weightb=1 open_gop=0 weightp=2 keyint=250 keyint_min=4 scenecut=40 intra_refresh=0 rc_lookahead=40 rc=crf mbtree=1 crf=23.0 qcomp=0.60 qpmin=0 qpmax=69 qpstep=4 ip_ratio=1.40 aq=1:1.00
Output #0, mov, to '/home/aleksandr/Pract/Samples/wmapro-in-wmavoice.wmv_tc/output2.mov':
  Metadata:
    WMFSDKNeeded    : 0.0.0.0000
    DeviceConformanceTemplate: MP@HL
    WMFSDKVersion   : 10.00.00.4054
    IsVBR           : 1
    VBR Peak        : 283651
    Buffer Average  : 67846
    encoder         : Lavf57.83.100
    Stream #0:0(eng): Video: h264 (libx264) (avc1 / 0x31637661), yuv420p(progressive), 1024x768 [SAR 1:1 DAR 4:3], q=-1--1, 4 fps, 16384 tbn, 4 tbc
    Metadata:
      encoder         : Lavc57.107.100 libx264
    Side data:
      cpb: bitrate max/min/avg: 0/0/0 buffer size: 0 vbv_delay: -1
    Stream #0:1(eng): Audio: aac (LC) (mp4a / 0x6134706D), 22050 Hz, mono, fltp, 69 kb/s
    Metadata:
      encoder         : Lavc57.107.100 aac
[wmavoice @ 0x55dfc3f76f40] WMAPro-in-WMAVoice is not implemented. Update your FFmpeg version to the newest one from Git. If the problem still occurs, it means that your file has a feature which has not been implemented.
[wmavoice @ 0x55dfc3f76f40] If you want to help, upload a sample of this file to ftp://upload.ffmpeg.org/incoming/ and contact the ffmpeg-devel mailing list. (ffmpeg-devel@ffmpeg.org)
[wmavoice @ 0x55dfc3f76f40] WMAPro-in-WMAVoice is not implemented. Update your FFmpeg version to the newest one from Git. If the problem still occurs, it means that your file has a feature which has not been implemented.
[wmavoice @ 0x55dfc3f76f40] If you want to help, upload a sample of this file to ftp://upload.ffmpeg.org/incoming/ and contact the ffmpeg-devel mailing list. (ffmpeg-devel@ffmpeg.org)
[wmavoice @ 0x55dfc3f76f40] WMAPro-in-WMAVoice is not implemented. Update your FFmpeg version to the newest one from Git. If the problem still occurs, it means that your file has a feature which has not been implemented.
[wmavoice @ 0x55dfc3f76f40] If you want to help, upload a sample of this file to ftp://upload.ffmpeg.org/incoming/ and contact the ffmpeg-devel mailing list. (ffmpeg-devel@ffmpeg.org)
[wmavoice @ 0x55dfc3f76f40] WMAPro-in-WMAVoice is not implemented. Update your FFmpeg version to the newest one from Git. If the problem still occurs, it means that your file has a feature which has not been implemented.
[wmavoice @ 0x55dfc3f76f40] If you want to help, upload a sample of this file to ftp://upload.ffmpeg.org/incoming/ and contact the ffmpeg-devel mailing list. (ffmpeg-devel@ffmpeg.org)
[wmavoice @ 0x55dfc3f76f40] WMAPro-in-WMAVoice is not implemented. Update your FFmpeg version to the newest one from Git. If the problem still occurs, it means that your file has a feature which has not been implemented.
[wmavoice @ 0x55dfc3f76f40] If you want to help, upload a sample of this file to ftp://upload.ffmpeg.org/incoming/ and contact the ffmpeg-devel mailing list. (ffmpeg-devel@ffmpeg.org)
[wmavoice @ 0x55dfc3f76f40] WMAPro-in-WMAVoice is not implemented. Update your FFmpeg version to the newest one from Git. If the problem still occurs, it means that your file has a feature which has not been implemented.
[wmavoice @ 0x55dfc3f76f40] If you want to help, upload a sample of this file to ftp://upload.ffmpeg.org/incoming/ and contact the ffmpeg-devel mailing list. (ffmpeg-devel@ffmpeg.org)
[wmavoice @ 0x55dfc3f76f40] WMAPro-in-WMAVoice is not implemented. Update your FFmpeg version to the newest one from Git. If the problem still occurs, it means that your file has a feature which has not been implemented.
[wmavoice @ 0x55dfc3f76f40] If you want to help, upload a sample of this file to ftp://upload.ffmpeg.org/incoming/ and contact the ffmpeg-devel mailing list. (ffmpeg-devel@ffmpeg.org)
[wmavoice @ 0x55dfc3f76f40] WMAPro-in-WMAVoice is not implemented. Update your FFmpeg version to the newest one from Git. If the problem still occurs, it means that your file has a feature which has not been implemented.
[wmavoice @ 0x55dfc3f76f40] If you want to help, upload a sample of this file to ftp://upload.ffmpeg.org/incoming/ and contact the ffmpeg-devel mailing list. (ffmpeg-devel@ffmpeg.org)
[wmavoice @ 0x55dfc3f76f40] WMAPro-in-WMAVoice is not implemented. Update your FFmpeg version to the newest one from Git. If the problem still occurs, it means that your file has a feature which has not been implemented.
[wmavoice @ 0x55dfc3f76f40] If you want to help, upload a sample of this file to ftp://upload.ffmpeg.org/incoming/ and contact the ffmpeg-devel mailing list. (ffmpeg-devel@ffmpeg.org)
[wmavoice @ 0x55dfc3f76f40] WMAPro-in-WMAVoice is not implemented. Update your FFmpeg version to the newest one from Git. If the problem still occurs, it means that your file has a feature which has not been implemented.
[wmavoice @ 0x55dfc3f76f40] If you want to help, upload a sample of this file to ftp://upload.ffmpeg.org/incoming/ and contact the ffmpeg-devel mailing list. (ffmpeg-devel@ffmpeg.org)
[wmavoice @ 0x55dfc3f76f40] WMAPro-in-WMAVoice is not implemented. Update your FFmpeg version to the newest one from Git. If the problem still occurs, it means that your file has a feature which has not been implemented.
[wmavoice @ 0x55dfc3f76f40] If you want to help, upload a sample of this file to ftp://upload.ffmpeg.org/incoming/ and contact the ffmpeg-devel mailing list. (ffmpeg-devel@ffmpeg.org)
[wmavoice @ 0x55dfc3f76f40] WMAPro-in-WMAVoice is not implemented. Update your FFmpeg version to the newest one from Git. If the problem still occurs, it means that your file has a feature which has not been implemented.
[wmavoice @ 0x55dfc3f76f40] If you want to help, upload a sample of this file to ftp://upload.ffmpeg.org/incoming/ and contact the ffmpeg-devel mailing list. (ffmpeg-devel@ffmpeg.org)
[wmavoice @ 0x55dfc3f76f40] WMAPro-in-WMAVoice is not implemented. Update your FFmpeg version to the newest one from Git. If the problem still occurs, it means that your file has a feature which has not been implemented.
[wmavoice @ 0x55dfc3f76f40] If you want to help, upload a sample of this file to ftp://upload.ffmpeg.org/incoming/ and contact the ffmpeg-devel mailing list. (ffmpeg-devel@ffmpeg.org)
[wmavoice @ 0x55dfc3f76f40] WMAPro-in-WMAVoice is not implemented. Update your FFmpeg version to the newest one from Git. If the problem still occurs, it means that your file has a feature which has not been implemented.
[wmavoice @ 0x55dfc3f76f40] If you want to help, upload a sample of this file to ftp://upload.ffmpeg.org/incoming/ and contact the ffmpeg-devel mailing list. (ffmpeg-devel@ffmpeg.org)
[wmavoice @ 0x55dfc3f76f40] WMAPro-in-WMAVoice is not implemented. Update your FFmpeg version to the newest one from Git. If the problem still occurs, it means that your file has a feature which has not been implemented.
[wmavoice @ 0x55dfc3f76f40] If you want to help, upload a sample of this file to ftp://upload.ffmpeg.org/incoming/ and contact the ffmpeg-devel mailing list. (ffmpeg-devel@ffmpeg.org)
[wmavoice @ 0x55dfc3f76f40] WMAPro-in-WMAVoice is not implemented. Update your FFmpeg version to the newest one from Git. If the problem still occurs, it means that your file has a feature which has not been implemented.
[wmavoice @ 0x55dfc3f76f40] If you want to help, upload a sample of this file to ftp://upload.ffmpeg.org/incoming/ and contact the ffmpeg-devel mailing list. (ffmpeg-devel@ffmpeg.org)
[wmavoice @ 0x55dfc3f76f40] WMAPro-in-WMAVoice is not implemented. Update your FFmpeg version to the newest one from Git. If the problem still occurs, it means that your file has a feature which has not been implemented.
[wmavoice @ 0x55dfc3f76f40] If you want to help, upload a sample of this file to ftp://upload.ffmpeg.org/incoming/ and contact the ffmpeg-devel mailing list. (ffmpeg-devel@ffmpeg.org)
[wmavoice @ 0x55dfc3f76f40] WMAPro-in-WMAVoice is not implemented. Update your FFmpeg version to the newest one from Git. If the problem still occurs, it means that your file has a feature which has not been implemented.
[wmavoice @ 0x55dfc3f76f40] If you want to help, upload a sample of this file to ftp://upload.ffmpeg.org/incoming/ and contact the ffmpeg-devel mailing list. (ffmpeg-devel@ffmpeg.org)
[wmavoice @ 0x55dfc3f76f40] WMAPro-in-WMAVoice is not implemented. Update your FFmpeg version to the newest one from Git. If the problem still occurs, it means that your file has a feature which has not been implemented.
[wmavoice @ 0x55dfc3f76f40] If you want to help, upload a sample of this file to ftp://upload.ffmpeg.org/incoming/ and contact the ffmpeg-devel mailing list. (ffmpeg-devel@ffmpeg.org)
[wmavoice @ 0x55dfc3f76f40] WMAPro-in-WMAVoice is not implemented. Update your FFmpeg version to the newest one from Git. If the problem still occurs, it means that your file has a feature which has not been implemented.
[wmavoice @ 0x55dfc3f76f40] If you want to help, upload a sample of this file to ftp://upload.ffmpeg.org/incoming/ and contact the ffmpeg-devel mailing list. (ffmpeg-devel@ffmpeg.org)
[wmavoice @ 0x55dfc3f76f40] WMAPro-in-WMAVoice is not implemented. Update your FFmpeg version to the newest one from Git. If the problem still occurs, it means that your file has a feature which has not been implemented.
[wmavoice @ 0x55dfc3f76f40] If you want to help, upload a sample of this file to ftp://upload.ffmpeg.org/incoming/ and contact the ffmpeg-devel mailing list. (ffmpeg-devel@ffmpeg.org)
[wmavoice @ 0x55dfc3f76f40] WMAPro-in-WMAVoice is not implemented. Update your FFmpeg version to the newest one from Git. If the problem still occurs, it means that your file has a feature which has not been implemented.
[wmavoice @ 0x55dfc3f76f40] If you want to help, upload a sample of this file to ftp://upload.ffmpeg.org/incoming/ and contact the ffmpeg-devel mailing list. (ffmpeg-devel@ffmpeg.org)
[wmavoice @ 0x55dfc3f76f40] WMAPro-in-WMAVoice is not implemented. Update your FFmpeg version to the newest one from Git. If the problem still occurs, it means that your file has a feature which has not been implemented.
[wmavoice @ 0x55dfc3f76f40] If you want to help, upload a sample of this file to ftp://upload.ffmpeg.org/incoming/ and contact the ffmpeg-devel mailing list. (ffmpeg-devel@ffmpeg.org)
[wmavoice @ 0x55dfc3f76f40] WMAPro-in-WMAVoice is not implemented. Update your FFmpeg version to the newest one from Git. If the problem still occurs, it means that your file has a feature which has not been implemented.
[wmavoice @ 0x55dfc3f76f40] If you want to help, upload a sample of this file to ftp://upload.ffmpeg.org/incoming/ and contact the ffmpeg-devel mailing list. (ffmpeg-devel@ffmpeg.org)
[wmavoice @ 0x55dfc3f76f40] WMAPro-in-WMAVoice is not implemented. Update your FFmpeg version to the newest one from Git. If the problem still occurs, it means that your file has a feature which has not been implemented.
[wmavoice @ 0x55dfc3f76f40] If you want to help, upload a sample of this file to ftp://upload.ffmpeg.org/incoming/ and contact the ffmpeg-devel mailing list. (ffmpeg-devel@ffmpeg.org)
[wmavoice @ 0x55dfc3f76f40] WMAPro-in-WMAVoice is not implemented. Update your FFmpeg version to the newest one from Git. If the problem still occurs, it means that your file has a feature which has not been implemented.
[wmavoice @ 0x55dfc3f76f40] If you want to help, upload a sample of this file to ftp://upload.ffmpeg.org/incoming/ and contact the ffmpeg-devel mailing list. (ffmpeg-devel@ffmpeg.org)
[wmavoice @ 0x55dfc3f76f40] WMAPro-in-WMAVoice is not implemented. Update your FFmpeg version to the newest one from Git. If the problem still occurs, it means that your file has a feature which has not been implemented.
[wmavoice @ 0x55dfc3f76f40] If you want to help, upload a sample of this file to ftp://upload.ffmpeg.org/incoming/ and contact the ffmpeg-devel mailing list. (ffmpeg-devel@ffmpeg.org)
[wmavoice @ 0x55dfc3f76f40] WMAPro-in-WMAVoice is not implemented. Update your FFmpeg version to the newest one from Git. If the problem still occurs, it means that your file has a feature which has not been implemented.
[wmavoice @ 0x55dfc3f76f40] If you want to help, upload a sample of this file to ftp://upload.ffmpeg.org/incoming/ and contact the ffmpeg-devel mailing list. (ffmpeg-devel@ffmpeg.org)
[wmavoice @ 0x55dfc3f76f40] WMAPro-in-WMAVoice is not implemented. Update your FFmpeg version to the newest one from Git. If the problem still occurs, it means that your file has a feature which has not been implemented.
[wmavoice @ 0x55dfc3f76f40] If you want to help, upload a sample of this file to ftp://upload.ffmpeg.org/incoming/ and contact the ffmpeg-devel mailing list. (ffmpeg-devel@ffmpeg.org)
[wmavoice @ 0x55dfc3f76f40] WMAPro-in-WMAVoice is not implemented. Update your FFmpeg version to the newest one from Git. If the problem still occurs, it means that your file has a feature which has not been implemented.
[wmavoice @ 0x55dfc3f76f40] If you want to help, upload a sample of this file to ftp://upload.ffmpeg.org/incoming/ and contact the ffmpeg-devel mailing list. (ffmpeg-devel@ffmpeg.org)
[wmavoice @ 0x55dfc3f76f40] WMAPro-in-WMAVoice is not implemented. Update your FFmpeg version to the newest one from Git. If the problem still occurs, it means that your file has a feature which has not been implemented.
[wmavoice @ 0x55dfc3f76f40] If you want to help, upload a sample of this file to ftp://upload.ffmpeg.org/incoming/ and contact the ffmpeg-devel mailing list. (ffmpeg-devel@ffmpeg.org)
[wmavoice @ 0x55dfc3f76f40] WMAPro-in-WMAVoice is not implemented. Update your FFmpeg version to the newest one from Git. If the problem still occurs, it means that your file has a feature which has not been implemented.
[wmavoice @ 0x55dfc3f76f40] If you want to help, upload a sample of this file to ftp://upload.ffmpeg.org/incoming/ and contact the ffmpeg-devel mailing list. (ffmpeg-devel@ffmpeg.org)
[wmavoice @ 0x55dfc3f76f40] WMAPro-in-WMAVoice is not implemented. Update your FFmpeg version to the newest one from Git. If the problem still occurs, it means that your file has a feature which has not been implemented.
[wmavoice @ 0x55dfc3f76f40] If you want to help, upload a sample of this file to ftp://upload.ffmpeg.org/incoming/ and contact the ffmpeg-devel mailing list. (ffmpeg-devel@ffmpeg.org)
[wmavoice @ 0x55dfc3f76f40] WMAPro-in-WMAVoice is not implemented. Update your FFmpeg version to the newest one from Git. If the problem still occurs, it means that your file has a feature which has not been implemented.
[wmavoice @ 0x55dfc3f76f40] If you want to help, upload a sample of this file to ftp://upload.ffmpeg.org/incoming/ and contact the ffmpeg-devel mailing list. (ffmpeg-devel@ffmpeg.org)
[wmavoice @ 0x55dfc3f76f40] WMAPro-in-WMAVoice is not implemented. Update your FFmpeg version to the newest one from Git. If the problem still occurs, it means that your file has a feature which has not been implemented.
[wmavoice @ 0x55dfc3f76f40] If you want to help, upload a sample of this file to ftp://upload.ffmpeg.org/incoming/ and contact the ffmpeg-devel mailing list. (ffmpeg-devel@ffmpeg.org)
[wmavoice @ 0x55dfc3f76f40] WMAPro-in-WMAVoice is not implemented. Update your FFmpeg version to the newest one from Git. If the problem still occurs, it means that your file has a feature which has not been implemented.
[wmavoice @ 0x55dfc3f76f40] If you want to help, upload a sample of this file to ftp://upload.ffmpeg.org/incoming/ and contact the ffmpeg-devel mailing list. (ffmpeg-devel@ffmpeg.org)
[wmavoice @ 0x55dfc3f76f40] WMAPro-in-WMAVoice is not implemented. Update your FFmpeg version to the newest one from Git. If the problem still occurs, it means that your file has a feature which has not been implemented.
[wmavoice @ 0x55dfc3f76f40] If you want to help, upload a sample of this file to ftp://upload.ffmpeg.org/incoming/ and contact the ffmpeg-devel mailing list. (ffmpeg-devel@ffmpeg.org)
[wmavoice @ 0x55dfc3f76f40] WMAPro-in-WMAVoice is not implemented. Update your FFmpeg version to the newest one from Git. If the problem still occurs, it means that your file has a feature which has not been implemented.
[wmavoice @ 0x55dfc3f76f40] If you want to help, upload a sample of this file to ftp://upload.ffmpeg.org/incoming/ and contact the ffmpeg-devel mailing list. (ffmpeg-devel@ffmpeg.org)
[wmavoice @ 0x55dfc3f76f40] WMAPro-in-WMAVoice is not implemented. Update your FFmpeg version to the newest one from Git. If the problem still occurs, it means that your file has a feature which has not been implemented.
[wmavoice @ 0x55dfc3f76f40] If you want to help, upload a sample of this file to ftp://upload.ffmpeg.org/incoming/ and contact the ffmpeg-devel mailing list. (ffmpeg-devel@ffmpeg.org)
[wmavoice @ 0x55dfc3f76f40] WMAPro-in-WMAVoice is not implemented. Update your FFmpeg version to the newest one from Git. If the problem still occurs, it means that your file has a feature which has not been implemented.
[wmavoice @ 0x55dfc3f76f40] If you want to help, upload a sample of this file to ftp://upload.ffmpeg.org/incoming/ and contact the ffmpeg-devel mailing list. (ffmpeg-devel@ffmpeg.org)
[wmavoice @ 0x55dfc3f76f40] WMAPro-in-WMAVoice is not implemented. Update your FFmpeg version to the newest one from Git. If the problem still occurs, it means that your file has a feature which has not been implemented.
[wmavoice @ 0x55dfc3f76f40] If you want to help, upload a sample of this file to ftp://upload.ffmpeg.org/incoming/ and contact the ffmpeg-devel mailing list. (ffmpeg-devel@ffmpeg.org)
[wmavoice @ 0x55dfc3f76f40] WMAPro-in-WMAVoice is not implemented. Update your FFmpeg version to the newest one from Git. If the problem still occurs, it means that your file has a feature which has not been implemented.
[wmavoice @ 0x55dfc3f76f40] If you want to help, upload a sample of this file to ftp://upload.ffmpeg.org/incoming/ and contact the ffmpeg-devel mailing list. (ffmpeg-devel@ffmpeg.org)
[wmavoice @ 0x55dfc3f76f40] WMAPro-in-WMAVoice is not implemented. Update your FFmpeg version to the newest one from Git. If the problem still occurs, it means that your file has a feature which has not been implemented.
[wmavoice @ 0x55dfc3f76f40] If you want to help, upload a sample of this file to ftp://upload.ffmpeg.org/incoming/ and contact the ffmpeg-devel mailing list. (ffmpeg-devel@ffmpeg.org)
[wmavoice @ 0x55dfc3f76f40] WMAPro-in-WMAVoice is not implemented. Update your FFmpeg version to the newest one from Git. If the problem still occurs, it means that your file has a feature which has not been implemented.
[wmavoice @ 0x55dfc3f76f40] If you want to help, upload a sample of this file to ftp://upload.ffmpeg.org/incoming/ and contact the ffmpeg-devel mailing list. (ffmpeg-devel@ffmpeg.org)
[wmavoice @ 0x55dfc3f76f40] WMAPro-in-WMAVoice is not implemented. Update your FFmpeg version to the newest one from Git. If the problem still occurs, it means that your file has a feature which has not been implemented.
[wmavoice @ 0x55dfc3f76f40] If you want to help, upload a sample of this file to ftp://upload.ffmpeg.org/incoming/ and contact the ffmpeg-devel mailing list. (ffmpeg-devel@ffmpeg.org)
[wmavoice @ 0x55dfc3f76f40] WMAPro-in-WMAVoice is not implemented. Update your FFmpeg version to the newest one from Git. If the problem still occurs, it means that your file has a feature which has not been implemented.
[wmavoice @ 0x55dfc3f76f40] If you want to help, upload a sample of this file to ftp://upload.ffmpeg.org/incoming/ and contact the ffmpeg-devel mailing list. (ffmpeg-devel@ffmpeg.org)
[wmavoice @ 0x55dfc3f76f40] WMAPro-in-WMAVoice is not implemented. Update your FFmpeg version to the newest one from Git. If the problem still occurs, it means that your file has a feature which has not been implemented.
[wmavoice @ 0x55dfc3f76f40] If you want to help, upload a sample of this file to ftp://upload.ffmpeg.org/incoming/ and contact the ffmpeg-devel mailing list. (ffmpeg-devel@ffmpeg.org)
[wmavoice @ 0x55dfc3f76f40] WMAPro-in-WMAVoice is not implemented. Update your FFmpeg version to the newest one from Git. If the problem still occurs, it means that your file has a feature which has not been implemented.
[wmavoice @ 0x55dfc3f76f40] If you want to help, upload a sample of this file to ftp://upload.ffmpeg.org/incoming/ and contact the ffmpeg-devel mailing list. (ffmpeg-devel@ffmpeg.org)
[wmavoice @ 0x55dfc3f76f40] WMAPro-in-WMAVoice is not implemented. Update your FFmpeg version to the newest one from Git. If the problem still occurs, it means that your file has a feature which has not been implemented.
[wmavoice @ 0x55dfc3f76f40] If you want to help, upload a sample of this file to ftp://upload.ffmpeg.org/incoming/ and contact the ffmpeg-devel mailing list. (ffmpeg-devel@ffmpeg.org)
[wmavoice @ 0x55dfc3f76f40] WMAPro-in-WMAVoice is not implemented. Update your FFmpeg version to the newest one from Git. If the problem still occurs, it means that your file has a feature which has not been implemented.
[wmavoice @ 0x55dfc3f76f40] If you want to help, upload a sample of this file to ftp://upload.ffmpeg.org/incoming/ and contact the ffmpeg-devel mailing list. (ffmpeg-devel@ffmpeg.org)
[wmavoice @ 0x55dfc3f76f40] WMAPro-in-WMAVoice is not implemented. Update your FFmpeg version to the newest one from Git. If the problem still occurs, it means that your file has a feature which has not been implemented.
[wmavoice @ 0x55dfc3f76f40] If you want to help, upload a sample of this file to ftp://upload.ffmpeg.org/incoming/ and contact the ffmpeg-devel mailing list. (ffmpeg-devel@ffmpeg.org)
[wmavoice @ 0x55dfc3f76f40] WMAPro-in-WMAVoice is not implemented. Update your FFmpeg version to the newest one from Git. If the problem still occurs, it means that your file has a feature which has not been implemented.
[wmavoice @ 0x55dfc3f76f40] If you want to help, upload a sample of this file to ftp://upload.ffmpeg.org/incoming/ and contact the ffmpeg-devel mailing list. (ffmpeg-devel@ffmpeg.org)
[wmavoice @ 0x55dfc3f76f40] WMAPro-in-WMAVoice is not implemented. Update your FFmpeg version to the newest one from Git. If the problem still occurs, it means that your file has a feature which has not been implemented.
[wmavoice @ 0x55dfc3f76f40] If you want to help, upload a sample of this file to ftp://upload.ffmpeg.org/incoming/ and contact the ffmpeg-devel mailing list. (ffmpeg-devel@ffmpeg.org)
[wmavoice @ 0x55dfc3f76f40] WMAPro-in-WMAVoice is not implemented. Update your FFmpeg version to the newest one from Git. If the problem still occurs, it means that your file has a feature which has not been implemented.
[wmavoice @ 0x55dfc3f76f40] If you want to help, upload a sample of this file to ftp://upload.ffmpeg.org/incoming/ and contact the ffmpeg-devel mailing list. (ffmpeg-devel@ffmpeg.org)
frame=  104 fps=0.0 q=22.0 size=       0kB time=00:00:23.79 bitrate=   0.0kbits/s dup=30 drop=0 speed=47.6x    [wmavoice @ 0x55dfc3f76f40] WMAPro-in-WMAVoice is not implemented. Update your FFmpeg version to the newest one from Git. If the problem still occurs, it means that your file has a feature which has not been implemented.
[wmavoice @ 0x55dfc3f76f40] If you want to help, upload a sample of this file to ftp://upload.ffmpeg.org/incoming/ and contact the ffmpeg-devel mailing list. (ffmpeg-devel@ffmpeg.org)
[wmavoice @ 0x55dfc3f76f40] WMAPro-in-WMAVoice is not implemented. Update your FFmpeg version to the newest one from Git. If the problem still occurs, it means that your file has a feature which has not been implemented.
[wmavoice @ 0x55dfc3f76f40] If you want to help, upload a sample of this file to ftp://upload.ffmpeg.org/incoming/ and contact the ffmpeg-devel mailing list. (ffmpeg-devel@ffmpeg.org)
[wmavoice @ 0x55dfc3f76f40] WMAPro-in-WMAVoice is not implemented. Update your FFmpeg version to the newest one from Git. If the problem still occurs, it means that your file has a feature which has not been implemented.
[wmavoice @ 0x55dfc3f76f40] If you want to help, upload a sample of this file to ftp://upload.ffmpeg.org/incoming/ and contact the ffmpeg-devel mailing list. (ffmpeg-devel@ffmpeg.org)
[wmavoice @ 0x55dfc3f76f40] WMAPro-in-WMAVoice is not implemented. Update your FFmpeg version to the newest one from Git. If the problem still occurs, it means that your file has a feature which has not been implemented.
[wmavoice @ 0x55dfc3f76f40] If you want to help, upload a sample of this file to ftp://upload.ffmpeg.org/incoming/ and contact the ffmpeg-devel mailing list. (ffmpeg-devel@ffmpeg.org)
[wmavoice @ 0x55dfc3f76f40] WMAPro-in-WMAVoice is not implemented. Update your FFmpeg version to the newest one from Git. If the problem still occurs, it means that your file has a feature which has not been implemented.
[wmavoice @ 0x55dfc3f76f40] If you want to help, upload a sample of this file to ftp://upload.ffmpeg.org/incoming/ and contact the ffmpeg-devel mailing list. (ffmpeg-devel@ffmpeg.org)
[wmavoice @ 0x55dfc3f76f40] WMAPro-in-WMAVoice is not implemented. Update your FFmpeg version to the newest one from Git. If the problem still occurs, it means that your file has a feature which has not been implemented.
[wmavoice @ 0x55dfc3f76f40] If you want to help, upload a sample of this file to ftp://upload.ffmpeg.org/incoming/ and contact the ffmpeg-devel mailing list. (ffmpeg-devel@ffmpeg.org)
[wmavoice @ 0x55dfc3f76f40] WMAPro-in-WMAVoice is not implemented. Update your FFmpeg version to the newest one from Git. If the problem still occurs, it means that your file has a feature which has not been implemented.
[wmavoice @ 0x55dfc3f76f40] If you want to help, upload a sample of this file to ftp://upload.ffmpeg.org/incoming/ and contact the ffmpeg-devel mailing list. (ffmpeg-devel@ffmpeg.org)
[wmavoice @ 0x55dfc3f76f40] WMAPro-in-WMAVoice is not implemented. Update your FFmpeg version to the newest one from Git. If the problem still occurs, it means that your file has a feature which has not been implemented.
[wmavoice @ 0x55dfc3f76f40] If you want to help, upload a sample of this file to ftp://upload.ffmpeg.org/incoming/ and contact the ffmpeg-devel mailing list. (ffmpeg-devel@ffmpeg.org)
[wmavoice @ 0x55dfc3f76f40] WMAPro-in-WMAVoice is not implemented. Update your FFmpeg version to the newest one from Git. If the problem still occurs, it means that your file has a feature which has not been implemented.
[wmavoice @ 0x55dfc3f76f40] If you want to help, upload a sample of this file to ftp://upload.ffmpeg.org/incoming/ and contact the ffmpeg-devel mailing list. (ffmpeg-devel@ffmpeg.org)
[wmavoice @ 0x55dfc3f76f40] WMAPro-in-WMAVoice is not implemented. Update your FFmpeg version to the newest one from Git. If the problem still occurs, it means that your file has a feature which has not been implemented.
[wmavoice @ 0x55dfc3f76f40] If you want to help, upload a sample of this file to ftp://upload.ffmpeg.org/incoming/ and contact the ffmpeg-devel mailing list. (ffmpeg-devel@ffmpeg.org)
[wmavoice @ 0x55dfc3f76f40] WMAPro-in-WMAVoice is not implemented. Update your FFmpeg version to the newest one from Git. If the problem still occurs, it means that your file has a feature which has not been implemented.
[wmavoice @ 0x55dfc3f76f40] If you want to help, upload a sample of this file to ftp://upload.ffmpeg.org/incoming/ and contact the ffmpeg-devel mailing list. (ffmpeg-devel@ffmpeg.org)
[wmavoice @ 0x55dfc3f76f40] WMAPro-in-WMAVoice is not implemented. Update your FFmpeg version to the newest one from Git. If the problem still occurs, it means that your file has a feature which has not been implemented.
[wmavoice @ 0x55dfc3f76f40] If you want to help, upload a sample of this file to ftp://upload.ffmpeg.org/incoming/ and contact the ffmpeg-devel mailing list. (ffmpeg-devel@ffmpeg.org)
[wmavoice @ 0x55dfc3f76f40] WMAPro-in-WMAVoice is not implemented. Update your FFmpeg version to the newest one from Git. If the problem still occurs, it means that your file has a feature which has not been implemented.
[wmavoice @ 0x55dfc3f76f40] If you want to help, upload a sample of this file to ftp://upload.ffmpeg.org/incoming/ and contact the ffmpeg-devel mailing list. (ffmpeg-devel@ffmpeg.org)
[wmavoice @ 0x55dfc3f76f40] WMAPro-in-WMAVoice is not implemented. Update your FFmpeg version to the newest one from Git. If the problem still occurs, it means that your file has a feature which has not been implemented.
[wmavoice @ 0x55dfc3f76f40] If you want to help, upload a sample of this file to ftp://upload.ffmpeg.org/incoming/ and contact the ffmpeg-devel mailing list. (ffmpeg-devel@ffmpeg.org)
[wmavoice @ 0x55dfc3f76f40] WMAPro-in-WMAVoice is not implemented. Update your FFmpeg version to the newest one from Git. If the problem still occurs, it means that your file has a feature which has not been implemented.
[wmavoice @ 0x55dfc3f76f40] If you want to help, upload a sample of this file to ftp://upload.ffmpeg.org/incoming/ and contact the ffmpeg-devel mailing list. (ffmpeg-devel@ffmpeg.org)
[wmavoice @ 0x55dfc3f76f40] WMAPro-in-WMAVoice is not implemented. Update your FFmpeg version to the newest one from Git. If the problem still occurs, it means that your file has a feature which has not been implemented.
[wmavoice @ 0x55dfc3f76f40] If you want to help, upload a sample of this file to ftp://upload.ffmpeg.org/incoming/ and contact the ffmpeg-devel mailing list. (ffmpeg-devel@ffmpeg.org)
[wmavoice @ 0x55dfc3f76f40] WMAPro-in-WMAVoice is not implemented. Update your FFmpeg version to the newest one from Git. If the problem still occurs, it means that your file has a feature which has not been implemented.
[wmavoice @ 0x55dfc3f76f40] If you want to help, upload a sample of this file to ftp://upload.ffmpeg.org/incoming/ and contact the ffmpeg-devel mailing list. (ffmpeg-devel@ffmpeg.org)
[wmavoice @ 0x55dfc3f76f40] WMAPro-in-WMAVoice is not implemented. Update your FFmpeg version to the newest one from Git. If the problem still occurs, it means that your file has a feature which has not been implemented.
[wmavoice @ 0x55dfc3f76f40] If you want to help, upload a sample of this file to ftp://upload.ffmpeg.org/incoming/ and contact the ffmpeg-devel mailing list. (ffmpeg-devel@ffmpeg.org)
[wmavoice @ 0x55dfc3f76f40] WMAPro-in-WMAVoice is not implemented. Update your FFmpeg version to the newest one from Git. If the problem still occurs, it means that your file has a feature which has not been implemented.
[wmavoice @ 0x55dfc3f76f40] If you want to help, upload a sample of this file to ftp://upload.ffmpeg.org/incoming/ and contact the ffmpeg-devel mailing list. (ffmpeg-devel@ffmpeg.org)
[wmavoice @ 0x55dfc3f76f40] WMAPro-in-WMAVoice is not implemented. Update your FFmpeg version to the newest one from Git. If the problem still occurs, it means that your file has a feature which has not been implemented.
[wmavoice @ 0x55dfc3f76f40] If you want to help, upload a sample of this file to ftp://upload.ffmpeg.org/incoming/ and contact the ffmpeg-devel mailing list. (ffmpeg-devel@ffmpeg.org)
[wmavoice @ 0x55dfc3f76f40] WMAPro-in-WMAVoice is not implemented. Update your FFmpeg version to the newest one from Git. If the problem still occurs, it means that your file has a feature which has not been implemented.
[wmavoice @ 0x55dfc3f76f40] If you want to help, upload a sample of this file to ftp://upload.ffmpeg.org/incoming/ and contact the ffmpeg-devel mailing list. (ffmpeg-devel@ffmpeg.org)
[wmavoice @ 0x55dfc3f76f40] WMAPro-in-WMAVoice is not implemented. Update your FFmpeg version to the newest one from Git. If the problem still occurs, it means that your file has a feature which has not been implemented.
[wmavoice @ 0x55dfc3f76f40] If you want to help, upload a sample of this file to ftp://upload.ffmpeg.org/incoming/ and contact the ffmpeg-devel mailing list. (ffmpeg-devel@ffmpeg.org)
[wmavoice @ 0x55dfc3f76f40] WMAPro-in-WMAVoice is not implemented. Update your FFmpeg version to the newest one from Git. If the problem still occurs, it means that your file has a feature which has not been implemented.
[wmavoice @ 0x55dfc3f76f40] If you want to help, upload a sample of this file to ftp://upload.ffmpeg.org/incoming/ and contact the ffmpeg-devel mailing list. (ffmpeg-devel@ffmpeg.org)
[wmavoice @ 0x55dfc3f76f40] WMAPro-in-WMAVoice is not implemented. Update your FFmpeg version to the newest one from Git. If the problem still occurs, it means that your file has a feature which has not been implemented.
[wmavoice @ 0x55dfc3f76f40] If you want to help, upload a sample of this file to ftp://upload.ffmpeg.org/incoming/ and contact the ffmpeg-devel mailing list. (ffmpeg-devel@ffmpeg.org)
[wmavoice @ 0x55dfc3f76f40] WMAPro-in-WMAVoice is not implemented. Update your FFmpeg version to the newest one from Git. If the problem still occurs, it means that your file has a feature which has not been implemented.
[wmavoice @ 0x55dfc3f76f40] If you want to help, upload a sample of this file to ftp://upload.ffmpeg.org/incoming/ and contact the ffmpeg-devel mailing list. (ffmpeg-devel@ffmpeg.org)
[wmavoice @ 0x55dfc3f76f40] WMAPro-in-WMAVoice is not implemented. Update your FFmpeg version to the newest one from Git. If the problem still occurs, it means that your file has a feature which has not been implemented.
[wmavoice @ 0x55dfc3f76f40] If you want to help, upload a sample of this file to ftp://upload.ffmpeg.org/incoming/ and contact the ffmpeg-devel mailing list. (ffmpeg-devel@ffmpeg.org)
[wmavoice @ 0x55dfc3f76f40] WMAPro-in-WMAVoice is not implemented. Update your FFmpeg version to the newest one from Git. If the problem still occurs, it means that your file has a feature which has not been implemented.
[wmavoice @ 0x55dfc3f76f40] If you want to help, upload a sample of this file to ftp://upload.ffmpeg.org/incoming/ and contact the ffmpeg-devel mailing list. (ffmpeg-devel@ffmpeg.org)
[wmavoice @ 0x55dfc3f76f40] WMAPro-in-WMAVoice is not implemented. Update your FFmpeg version to the newest one from Git. If the problem still occurs, it means that your file has a feature which has not been implemented.
[wmavoice @ 0x55dfc3f76f40] If you want to help, upload a sample of this file to ftp://upload.ffmpeg.org/incoming/ and contact the ffmpeg-devel mailing list. (ffmpeg-devel@ffmpeg.org)
[wmavoice @ 0x55dfc3f76f40] WMAPro-in-WMAVoice is not implemented. Update your FFmpeg version to the newest one from Git. If the problem still occurs, it means that your file has a feature which has not been implemented.
[wmavoice @ 0x55dfc3f76f40] If you want to help, upload a sample of this file to ftp://upload.ffmpeg.org/incoming/ and contact the ffmpeg-devel mailing list. (ffmpeg-devel@ffmpeg.org)
[wmavoice @ 0x55dfc3f76f40] WMAPro-in-WMAVoice is not implemented. Update your FFmpeg version to the newest one from Git. If the problem still occurs, it means that your file has a feature which has not been implemented.
[wmavoice @ 0x55dfc3f76f40] If you want to help, upload a sample of this file to ftp://upload.ffmpeg.org/incoming/ and contact the ffmpeg-devel mailing list. (ffmpeg-devel@ffmpeg.org)
[wmavoice @ 0x55dfc3f76f40] WMAPro-in-WMAVoice is not implemented. Update your FFmpeg version to the newest one from Git. If the problem still occurs, it means that your file has a feature which has not been implemented.
[wmavoice @ 0x55dfc3f76f40] If you want to help, upload a sample of this file to ftp://upload.ffmpeg.org/incoming/ and contact the ffmpeg-devel mailing list. (ffmpeg-devel@ffmpeg.org)
[wmavoice @ 0x55dfc3f76f40] WMAPro-in-WMAVoice is not implemented. Update your FFmpeg version to the newest one from Git. If the problem still occurs, it means that your file has a feature which has not been implemented.
[wmavoice @ 0x55dfc3f76f40] If you want to help, upload a sample of this file to ftp://upload.ffmpeg.org/incoming/ and contact the ffmpeg-devel mailing list. (ffmpeg-devel@ffmpeg.org)
[wmavoice @ 0x55dfc3f76f40] WMAPro-in-WMAVoice is not implemented. Update your FFmpeg version to the newest one from Git. If the problem still occurs, it means that your file has a feature which has not been implemented.
[wmavoice @ 0x55dfc3f76f40] If you want to help, upload a sample of this file to ftp://upload.ffmpeg.org/incoming/ and contact the ffmpeg-devel mailing list. (ffmpeg-devel@ffmpeg.org)
[wmavoice @ 0x55dfc3f76f40] WMAPro-in-WMAVoice is not implemented. Update your FFmpeg version to the newest one from Git. If the problem still occurs, it means that your file has a feature which has not been implemented.
[wmavoice @ 0x55dfc3f76f40] If you want to help, upload a sample of this file to ftp://upload.ffmpeg.org/incoming/ and contact the ffmpeg-devel mailing list. (ffmpeg-devel@ffmpeg.org)
frame=  196 fps=194 q=22.0 size=     256kB time=00:00:46.98 bitrate=  44.6kbits/s dup=73 drop=0 speed=46.5x    frame=  263 fps=173 q=22.0 size=     512kB time=00:01:02.77 bitrate=  66.8kbits/s dup=102 drop=0 speed=41.4x    frame=  332 fps=164 q=22.0 size=     768kB time=00:01:22.18 bitrate=  76.6kbits/s dup=129 drop=0 speed=40.7x    frame=  398 fps=157 q=22.0 size=     768kB time=00:01:36.02 bitrate=  65.5kbits/s dup=162 drop=0 speed=  38x    frame=  474 fps=156 q=22.0 size=    1024kB time=00:01:56.87 bitrate=  71.8kbits/s dup=201 drop=0 speed=38.6x    frame=  554 fps=157 q=22.0 size=    1280kB time=00:02:14.84 bitrate=  77.8kbits/s dup=246 drop=0 speed=38.2x    frame=  634 fps=157 q=22.0 size=    1536kB time=00:02:34.95 bitrate=  81.2kbits/s dup=288 drop=0 speed=38.4x    frame=  718 fps=158 q=22.0 size=    1536kB time=00:02:55.20 bitrate=  71.8kbits/s dup=334 drop=0 speed=38.6x    frame=  799 fps=158 q=22.0 size=    1792kB time=00:03:16.93 bitrate=  74.5kbits/s dup=377 drop=0 speed=  39x    frame=  890 fps=160 q=22.0 size=    2048kB time=00:03:37.46 bitrate=  77.2kbits/s dup=415 drop=0 speed=39.2x    frame=  967 fps=160 q=22.0 size=    2304kB time=00:03:56.83 bitrate=  79.7kbits/s dup=428 drop=0 speed=39.1x    frame= 1038 fps=158 q=22.0 size=    2560kB time=00:04:15.54 bitrate=  82.1kbits/s dup=471 drop=0 speed=38.9x    frame= 1104 fps=156 q=22.0 size=    2816kB time=00:04:33.19 bitrate=  84.4kbits/s dup=508 drop=0 speed=38.7x    frame= 1187 fps=157 q=22.0 size=    2816kB time=00:04:53.02 bitrate=  78.7kbits/s dup=552 drop=0 speed=38.7x    frame= 1263 fps=157 q=22.0 size=    3072kB time=00:05:13.36 bitrate=  80.3kbits/s dup=594 drop=0 speed=38.8x    frame= 1343 fps=157 q=22.0 size=    3328kB time=00:05:33.10 bitrate=  81.8kbits/s dup=633 drop=0 speed=38.9x    frame= 1426 fps=157 q=22.0 size=    3584kB time=00:05:53.30 bitrate=  83.1kbits/s dup=672 drop=0 speed=  39x    frame= 1507 fps=157 q=22.0 size=    3840kB time=00:06:13.45 bitrate=  84.2kbits/s dup=715 drop=0 speed=  39x    frame= 1589 fps=158 q=22.0 size=    4096kB time=00:06:33.75 bitrate=  85.2kbits/s dup=760 drop=0 speed=39.1x    frame= 1679 fps=159 q=22.0 size=    4096kB time=00:06:55.71 bitrate=  80.7kbits/s dup=809 drop=0 speed=39.3x    frame= 1755 fps=158 q=22.0 size=    4352kB time=00:07:14.98 bitrate=  82.0kbits/s dup=849 drop=0 speed=39.2x    frame= 1843 fps=159 q=22.0 size=    4608kB time=00:07:35.93 bitrate=  82.8kbits/s dup=899 drop=0 speed=39.3x    frame= 1926 fps=159 q=22.0 size=    4864kB time=00:07:56.78 bitrate=  83.6kbits/s dup=942 drop=0 speed=39.4x    frame= 2002 fps=159 q=22.0 size=    5120kB time=00:08:15.64 bitrate=  84.6kbits/s dup=982 drop=0 speed=39.3x    More than 1000 frames duplicated
frame= 2078 fps=159 q=22.0 size=    5376kB time=00:08:36.02 bitrate=  85.3kbits/s dup=1025 drop=0 speed=39.4x    frame= 2162 fps=159 q=22.0 size=    5376kB time=00:08:56.36 bitrate=  82.1kbits/s dup=1071 drop=0 speed=39.4x    frame= 2239 fps=159 q=22.0 size=    5632kB time=00:09:16.66 bitrate=  82.9kbits/s dup=1112 drop=0 speed=39.5x    frame= 2318 fps=159 q=22.0 size=    5888kB time=00:09:35.09 bitrate=  83.9kbits/s dup=1157 drop=0 speed=39.4x    frame= 2402 fps=159 q=22.0 size=    6144kB time=00:09:55.67 bitrate=  84.5kbits/s dup=1204 drop=0 speed=39.4x    frame= 2482 fps=159 q=22.0 size=    6400kB time=00:10:15.68 bitrate=  85.2kbits/s dup=1249 drop=0 speed=39.4x    frame= 2558 fps=158 q=22.0 size=    6656kB time=00:10:35.23 bitrate=  85.8kbits/s dup=1292 drop=0 speed=39.3x    frame= 2639 fps=159 q=22.0 size=    6656kB time=00:10:55.76 bitrate=  83.1kbits/s dup=1334 drop=0 speed=39.4x    frame= 2723 fps=159 q=22.0 size=    6912kB time=00:11:16.33 bitrate=  83.7kbits/s dup=1378 drop=0 speed=39.4x    frame= 2797 fps=158 q=22.0 size=    7168kB time=00:11:35.42 bitrate=  84.4kbits/s dup=1416 drop=0 speed=39.4x    frame= 2861 fps=158 q=22.0 size=    7424kB time=00:11:52.88 bitrate=  85.3kbits/s dup=1445 drop=0 speed=39.3x    frame= 2939 fps=158 q=22.0 size=    7680kB time=00:12:11.18 bitrate=  86.0kbits/s dup=1475 drop=0 speed=39.2x    [wmv3 @ 0x55dfc3f77420] Bits overconsumption: 331248 > 331240
[wmv3 @ 0x55dfc3f77420] concealing 3072 DC, 3072 AC, 3072 MV errors in I frame
frame= 2943 fps=156 q=-1.0 Lsize=    8026kB time=00:12:15.00 bitrate=  89.5kbits/s dup=1479 drop=0 speed=  39x    
video:1436kB audio:6419kB subtitle:0kB other streams:0kB global headers:0kB muxing overhead: 2.181750%
[libx264 @ 0x55dfc3f788a0] frame I:12    Avg QP: 7.13  size: 72109
[libx264 @ 0x55dfc3f788a0] frame P:748   Avg QP:13.96  size:   623
[libx264 @ 0x55dfc3f788a0] frame B:2183  Avg QP: 7.10  size:    63
[libx264 @ 0x55dfc3f788a0] consecutive B-frames:  0.8%  0.5%  0.8% 97.9%
[libx264 @ 0x55dfc3f788a0] mb I  I16..4: 69.6% 11.6% 18.8%
[libx264 @ 0x55dfc3f788a0] mb P  I16..4:  0.5%  0.3%  0.1%  P16..4:  0.4%  0.0%  0.0%  0.0%  0.0%    skip:98.7%
[libx264 @ 0x55dfc3f788a0] mb B  I16..4:  0.0%  0.0%  0.0%  B16..8:  0.7%  0.0%  0.0%  direct: 0.0%  skip:99.3%  L0:62.1% L1:37.8% BI: 0.1%
[libx264 @ 0x55dfc3f788a0] 8x8 transform intra:18.1% inter:42.5%
[libx264 @ 0x55dfc3f788a0] coded y,uvDC,uvAC intra: 13.6% 13.6% 11.5% inter: 0.0% 0.1% 0.0%
[libx264 @ 0x55dfc3f788a0] i16 v,h,dc,p: 65% 32%  2%  0%
[libx264 @ 0x55dfc3f788a0] i8 v,h,dc,ddl,ddr,vr,hd,vl,hu: 63% 12% 23%  0%  0%  0%  0%  0%  1%
[libx264 @ 0x55dfc3f788a0] i4 v,h,dc,ddl,ddr,vr,hd,vl,hu: 35% 27% 14%  3%  3%  4%  4%  3%  6%
[libx264 @ 0x55dfc3f788a0] i8c dc,h,v,p: 74% 15% 10%  1%
[libx264 @ 0x55dfc3f788a0] Weighted P-Frames: Y:0.0% UV:0.0%
[libx264 @ 0x55dfc3f788a0] ref P L0: 78.6%  3.5% 12.4%  5.5%
[libx264 @ 0x55dfc3f788a0] ref B L0: 55.6% 43.4%  1.0%
[libx264 @ 0x55dfc3f788a0] ref B L1: 98.5%  1.5%
[libx264 @ 0x55dfc3f788a0] kb/s:15.98
[aac @ 0x55dfc3f9ca80] Qavg: 5281.230
	Command being timed: "/usr/bin/ffmpeg -i ../.././Samples/wmapro-in-wmavoice.wmv -c:v libx264 -f mov /home/aleksandr/Pract/Samples/wmapro-in-wmavoice.wmv_tc/output2.mov"
	User time (seconds): 48.14
	System time (seconds): 0.25
	Percent of CPU this job got: 255%
	Elapsed (wall clock) time (h:mm:ss or m:ss): 0:18.91
	Average shared text size (kbytes): 0
	Average unshared data size (kbytes): 0
	Average stack size (kbytes): 0
	Average total size (kbytes): 0
	Maximum resident set size (kbytes): 245532
	Average resident set size (kbytes): 0
	Major (requiring I/O) page faults: 0
	Minor (reclaiming a frame) page faults: 14904
	Voluntary context switches: 24668
	Involuntary context switches: 1863
	Swaps: 0
	File system inputs: 0
	File system outputs: 16152
	Socket messages sent: 0
	Socket messages received: 0
	Signals delivered: 0
	Page size (bytes): 4096
	Exit status: 0
